<?xml version="1.0" standalone="no"?>
<!DOCTYPE svg PUBLIC "-//W3C//DTD SVG 20010904//EN"
 "http://www.w3.org/TR/2001/REC-SVG-20010904/DTD/svg10.dtd">
<svg version="1.0" xmlns="http://www.w3.org/2000/svg"
 width="26.000000pt" height="26.000000pt" viewBox="0 0 26.000000 26.000000"
 preserveAspectRatio="xMidYMid meet">

<g transform="translate(0.000000,26.000000) scale(0.100000,-0.100000)"
fill="#000000" stroke="none">
<path d="M58 244 c-30 -16 -58 -61 -58 -94 0 -34 28 -78 60 -95 35 -18 60 -19
95 -3 23 10 29 8 60 -22 45 -44 59 -30 15 15 -30 31 -32 37 -22 60 16 35 15
60 -3 95 -28 54 -94 74 -147 44z m113 -33 c39 -40 39 -82 0 -122 -20 -20 -39
-29 -61 -29 -43 0 -90 47 -90 90 0 43 47 90 90 90 22 0 41 -9 61 -29z"/>
</g>
</svg>
